# xmcd
# 
# Track frame offsets:
#     150
#     19020
#     33767
#     50039
#     69511
#     85473
#     98199
#     111782
#     132799
#     145652
#     170120
#     187329
#     203430
# 
# Disc length: 3048
# 
# Revision: 3
# Processed by: cddbd v1.5.2PL0 Copyright (c) Steve Scherf et al.
# Submitted via: fre:ac v1.1beta1pre4
# 
DISCID=b50be60d
DTITLE=Sikorowski Andrzej (I Maja) - Sprawa Rodzinna
DYEAR=2010
DGENRE=Ballad
TTITLE0=Sprawa Rodzinna
TTITLE1=Ciasne Sukienki
TTITLE2=Warto Wierzyc
TTITLE3=Jakby Jeden Rytm
TTITLE4=Jasminowy Zawrot Glowy
TTITLE5=Theos An Ine
TTITLE6=Pani Zosia
TTITLE7=Lekcja Religii
TTITLE8=Umarl W Butach
TTITLE9=Uczta W Poscie
TTITLE10=Nie Jestem Trendy
TTITLE11=Blondynka Blues
TTITLE12=Piosenka Na Koniec Swiata
EXTD=
EXTT0=
EXTT1=
EXTT2=
EXTT3=
EXTT4=
EXTT5=
EXTT6=
EXTT7=
EXTT8=
EXTT9=
EXTT10=
EXTT11=
EXTT12=
PLAYORDER=
